<svg xmlns="http://www.w3.org/2000/svg" width="132" height="132" viewBox="0 0 132 132" fill="none">
<g clip-path="url(#clip0_2193_35584)">
<path fill-rule="evenodd" clip-rule="evenodd" d="M124.637 76.4379C124.085 79.4156 123.35 82.2481 122.554 84.9353L122.493 85.0806L118.388 95.6116C118.143 96.12 117.837 96.7011 117.592 97.2095C117.469 97.4274 117.408 97.6452 117.286 97.7905C107.117 116.601 82.0537 117.108 74.0266 118.012C45.3029 121.244 25.0909 114.495 14.1869 98.5168C14.0031 98.2989 13.8193 98.0084 13.6968 97.7179C13.0229 96.7011 12.3491 95.6116 11.7365 94.5222C11.0627 93.3602 10.3888 92.1255 9.77621 90.8908C7.32585 85.8795 6.89706 79.924 6.65202 73.6054C5.24307 33.0062 32.5645 34.2409 49.6558 31.3357C65.7669 28.6485 67.5434 4.89913 97.0701 10.8546C132.6 18.1174 124.637 76.4379 124.637 76.4379Z" fill="#D5F7F4"/>
<g clip-path="url(#clip1_2193_35584)">
<path d="M12.2662 64.5025L69.6453 96.606L67.5566 122.1L27.1683 99.3784C23.995 97.5904 21.6252 94.6573 20.5407 91.1818L12.2461 64.4824L12.2662 64.5025Z" fill="#FEC102"/>
<path d="M69.6467 96.606L111.18 71.6946L102.283 97.8516C101.058 101.488 98.5271 104.541 95.1932 106.43L67.5781 122.12L69.6668 96.6261L69.6467 96.606Z" fill="#FF9900"/>
<path d="M83.5647 55.2411L59.4642 25.9702C59.0626 25.468 58.3395 25.3273 57.7772 25.6287L12.2676 49.1941" stroke="#3C9547" stroke-width="4" stroke-linecap="round" stroke-linejoin="round"/>
<path d="M54.1016 39.6112L56.1099 78.5855L78.1819 91.4831L111.179 71.6746L54.1016 39.6112Z" fill="#E87314"/>
<path d="M12.2676 64.5025L54.1019 39.6112L56.1103 78.5855L47.1529 84.0097L12.2676 64.5025Z" fill="#FF7F17"/>
<path d="M47.1523 84.0097L56.1097 78.5854L78.1816 91.4831L69.6461 96.606L47.1523 84.0097Z" fill="#D86A11"/>
<path d="M10.5396 62.6743L11.2024 61.7502C12.1865 60.3841 14.0743 59.9823 15.5204 60.8663L71.6944 94.4966C73.1605 95.3806 73.7028 97.2288 72.9396 98.7556C72.0961 100.423 70.0275 101.066 68.4007 100.122L11.5639 67.4155C9.89693 66.4512 9.41492 64.2614 10.5396 62.6743Z" fill="#FFE802"/>
<path d="M51.108 39.5108L51.7707 38.5866C52.7548 37.2205 54.6427 36.8187 56.0887 37.7027L112.263 71.333C113.729 72.217 114.271 74.0653 113.508 75.5921C112.664 77.2595 110.596 77.9024 108.969 76.9582L52.1322 44.2319C50.4653 43.2676 49.9833 41.0778 51.108 39.4907V39.5108Z" fill="#FFE802"/>
<path d="M69.0424 95.1997L109.129 72.0764C110.455 71.3129 112.122 71.6946 113.006 72.9201L113.327 73.3621C114.331 74.7885 113.889 76.7774 112.363 77.6211L71.9545 100.303C70.7294 100.986 69.203 100.724 68.2792 99.6597C67.0742 98.2534 67.4558 96.1239 69.0424 95.1997Z" fill="#FFE802"/>
<path d="M12.5273 60.7457L52.6143 37.6223C53.9399 36.8589 55.6068 37.2406 56.4905 38.4661L56.8118 38.9081C57.816 40.3344 57.3742 42.3233 55.8478 43.1671L15.4193 65.8686C14.1942 66.5516 12.6679 66.2905 11.744 65.2257C10.539 63.8194 10.9206 61.6899 12.5072 60.7658L12.5273 60.7457Z" fill="#FFE802"/>
<path d="M34.398 86.1995C33.8357 87.2643 30.3612 87.7665 27.2683 86.1191C24.1754 84.4919 22.629 81.3578 23.1713 80.2931C23.7336 79.2283 26.1838 80.6547 29.2968 82.2619C32.4097 83.8691 34.9403 85.1146 34.398 86.1794V86.1995Z" fill="#FF9900"/>
<path d="M47.7744 94.7779C47.1317 95.8024 43.6573 96.0636 40.6648 94.2354C37.6924 92.4073 36.3468 89.1929 36.9694 88.1683C37.592 87.1437 39.9619 88.7308 42.9543 90.5389C45.9468 92.347 48.4171 93.7533 47.7945 94.7779H47.7744Z" fill="#FF9900"/>
<path d="M62.1949 102.512C61.6326 103.577 58.1581 104.079 55.0652 102.432C51.9723 100.805 50.4259 97.6708 50.9681 96.606C51.5305 95.5413 53.9807 96.9676 57.0937 98.5748C60.2066 100.182 62.7372 101.428 62.1949 102.492V102.512Z" fill="#FF9900"/>
<path d="M37.5523 97.3293C36.99 98.394 33.5155 98.8963 30.4226 97.2489C27.3297 95.6216 25.7833 92.4876 26.3256 91.4228C26.8879 90.3581 29.3381 91.7845 32.4511 93.3916C35.564 94.9988 38.0946 96.2444 37.5523 97.3092V97.3293Z" fill="#FF9900"/>
<path d="M50.9287 105.888C50.286 106.912 46.8116 107.173 43.8191 105.345C40.8467 103.517 39.5011 100.303 40.1237 99.278C40.7463 98.2534 43.1162 99.8405 46.1086 101.649C49.1011 103.457 51.5714 104.863 50.9488 105.888H50.9287Z" fill="#FF9900"/>
<path d="M65.3473 113.642C64.7849 114.707 61.3104 115.209 58.2175 113.562C55.1247 111.935 53.5782 108.801 54.1205 107.736C54.6828 106.671 57.133 108.097 60.246 109.705C63.359 111.312 65.8895 112.557 65.3473 113.622V113.642Z" fill="#FF9900"/>
<path d="M66.9351 62.9556C66.3728 64.0204 62.8983 64.5226 59.8054 62.8752C56.7125 61.248 55.1661 58.1139 55.7084 57.0492C56.2707 55.9844 58.7209 57.4108 61.8339 59.018C64.9469 60.6252 67.4774 61.8707 66.9351 62.9355V62.9556Z" fill="#FEC102"/>
<path d="M80.3096 71.5138C79.6669 72.5384 76.1924 72.7996 73.2 70.9714C70.2276 69.1432 68.882 65.9289 69.5046 64.9043C70.1271 63.8797 72.497 65.4668 75.4895 67.2749C78.482 69.083 80.9523 70.4893 80.3297 71.5138H80.3096Z" fill="#FEC102"/>
<path d="M94.7301 79.2685C94.1677 80.3333 90.6932 80.8355 87.6004 79.1882C84.5075 77.5609 82.961 74.4269 83.5033 73.3621C84.0656 72.2974 86.5158 73.7237 89.6288 75.3309C92.7418 76.9381 95.2723 78.1837 94.7301 79.2484V79.2685Z" fill="#FEC102"/>
<path d="M70.0875 76.235C69.5251 77.2997 66.0507 77.802 62.9578 76.1546C59.8649 74.5273 58.3184 71.3933 58.8607 70.3285C59.4231 69.2638 61.8733 70.6902 64.9862 72.2973C68.0992 73.9045 70.6297 75.1501 70.0875 76.2149V76.235Z" fill="#FEC102"/>
<path d="M83.4639 84.8133C82.8212 85.8379 79.3467 86.099 76.3542 84.2709C73.3819 82.4427 72.0363 79.2283 72.6589 78.2037C73.2814 77.1792 75.6513 78.7663 78.6438 80.5743C81.6363 82.3824 84.1065 83.7887 83.484 84.8133H83.4639Z" fill="#FEC102"/>
<path d="M85.8932 97.8717C86.4555 98.9364 84.9292 102.091 81.8363 103.738C78.7434 105.385 75.289 104.923 74.7267 103.858C74.1643 102.794 76.7149 101.568 79.7877 99.9007C82.8605 98.2333 85.3108 96.827 85.8932 97.8717Z" fill="#D67C07"/>
<path d="M100.354 97.3092C100.916 98.3739 99.3901 101.528 96.2972 103.175C93.2043 104.823 89.7499 104.361 89.1876 103.296C88.6252 102.231 91.1759 101.006 94.2487 99.3383C97.3215 97.6708 99.7717 96.2645 100.354 97.3092Z" fill="#D67C07"/>
<path d="M100.274 89.9161C100.836 90.9809 99.31 94.135 96.2171 95.7823C93.1243 97.4297 89.6699 96.9676 89.1075 95.9029C88.5452 94.8381 91.0958 93.6126 94.1686 91.9452C97.2414 90.2777 99.6916 88.8714 100.274 89.9161Z" fill="#D67C07"/>
<path d="M86.7174 105.928C87.2797 106.992 85.7534 110.147 82.6605 111.794C79.5676 113.441 76.1132 112.979 75.5509 111.914C74.9885 110.85 77.5392 109.624 80.612 107.957C83.6848 106.289 86.135 104.883 86.7174 105.928Z" fill="#D67C07"/>
<path d="M53.4381 69.7259C54.0004 70.7906 52.4741 73.9447 49.3812 75.5921C46.2883 77.2395 42.8339 76.7774 42.2716 75.7126C41.7092 74.6479 44.2599 73.4224 47.3327 71.7549C50.4055 70.0875 52.8557 68.6812 53.4381 69.7259Z" fill="#FEC102"/>
<path d="M51.069 58.6765C51.6313 59.7412 50.1049 62.8953 47.0121 64.5427C43.9192 66.19 40.4648 65.728 39.9024 64.6632C39.3401 63.5985 41.8907 62.373 44.9635 60.7055C48.0363 59.0381 50.4865 57.6318 51.069 58.6765Z" fill="#FEC102"/>
<path d="M42.3529 87.1839L12.2676 49.1941" stroke="#3C9547" stroke-width="4" stroke-linecap="round" stroke-linejoin="round"/>
</g>
<path d="M111.096 45.1692L109.7 45.3398C109.494 45.3358 109.291 45.2825 109.109 45.1844C108.927 45.0863 108.772 44.9461 108.655 44.7756L108.06 43.6256C107.912 43.3285 107.74 43.0446 107.544 42.7769C107.956 44.704 107.626 46.7156 106.621 48.4106C105.616 50.1055 104.009 51.3593 102.12 51.9219C101.367 52.1527 100.582 52.2631 99.7939 52.2489C100.173 52.6626 100.657 52.9658 101.194 53.1265C101.732 53.2871 102.303 53.2992 102.846 53.1614L104.173 53.0163C104.381 53.0152 104.585 53.0663 104.768 53.1648C104.95 53.2634 105.105 53.4064 105.218 53.5804L105.813 54.7304C106.899 57.0336 108.379 56.9306 109.143 56.6973C109.907 56.4641 111.181 55.7249 110.895 53.2224L110.75 51.8953C110.754 51.6888 110.807 51.4862 110.906 51.3045C111.004 51.1228 111.144 50.9671 111.314 50.8505L112.465 50.2669C114.766 49.123 114.723 47.6878 114.466 46.9246C114.21 46.1615 113.68 44.8461 111.096 45.1692Z" fill="#FEC100"/>
<path d="M107.52 42.7659C107.241 42.2821 106.806 41.9065 106.287 41.6997C105.768 41.4928 105.195 41.4668 104.659 41.6258C103.86 41.8601 102.622 42.6099 102.954 45.1226L103.087 46.4151C103.088 46.6226 103.037 46.827 102.938 47.0096C102.839 47.1921 102.697 47.347 102.522 47.4599L101.373 48.0668C99.0707 49.1874 99.1139 50.6226 99.4186 51.431C99.5038 51.7226 99.6429 51.9957 99.8284 52.2363C100.616 52.2504 101.401 52.14 102.154 51.9092C104.032 51.3348 105.625 50.0764 106.619 48.3831C107.613 46.6898 107.934 44.6851 107.52 42.7659Z" fill="#FFDC00"/>
<path d="M100.228 23.8821L98.5996 23.0731C98.3796 22.922 98.1987 22.7203 98.0724 22.4852C97.9461 22.25 97.8779 21.9881 97.8734 21.7212L98.0487 20.0567C98.1007 19.6312 98.1164 19.2021 98.0955 18.7739C97.1695 21.1465 95.3832 23.0829 93.0929 24.1971C90.8026 25.3112 88.1765 25.5212 85.7383 24.7851C84.7613 24.4985 83.8356 24.0592 82.9956 23.4838C83.1104 24.1996 83.4169 24.871 83.8826 25.4266C84.3483 25.9822 84.9559 26.4013 85.6407 26.6393L87.176 27.4266C87.4007 27.573 87.585 27.7734 87.7119 28.0097C87.8388 28.2459 87.9043 28.5103 87.9023 28.7785L87.7268 30.4428C87.2602 33.7003 88.9309 34.6419 89.921 34.9334C90.9112 35.2249 92.8118 35.3334 94.2833 32.4297L95.0706 30.8944C95.2217 30.6743 95.4232 30.4936 95.6584 30.3672C95.8935 30.2409 96.1556 30.1727 96.4225 30.1681L98.079 30.3565C101.376 30.7588 102.35 29.1791 102.616 28.1731C102.882 27.1671 103.245 25.3705 100.228 23.8821Z" fill="#FEC100"/>
<path d="M98.0768 18.7451C98.1194 18.0243 97.918 17.3101 97.505 16.7178C97.092 16.1255 96.4915 15.6895 95.8004 15.4801C94.7717 15.1648 92.9018 15.093 91.4737 18.0412L90.6973 19.5301C90.551 19.7547 90.3504 19.939 90.1142 20.0659C89.8779 20.1928 89.6136 20.2583 89.3455 20.2563L87.6732 20.0937C84.3919 19.6656 83.4178 21.2452 83.1717 22.3343C83.0563 22.7095 83.0121 23.1031 83.0412 23.4947C83.8813 24.0701 84.8069 24.5093 85.784 24.796C88.2185 25.5115 90.8328 25.2866 93.1095 24.166C95.3861 23.0454 97.1589 21.1107 98.0768 18.7451Z" fill="#FFDC00"/>
</g>
<defs>
<clipPath id="clip0_2193_35584">
<rect width="132" height="132" fill="white"/>
</clipPath>
<clipPath id="clip1_2193_35584">
<rect width="105.6" height="100.65" fill="white" transform="translate(8.25 21.45)"/>
</clipPath>
</defs>
</svg>